<?xml version="1.0" encoding="UTF-8"?>
<!-- Created with Inkscape (http://www.inkscape.org/) -->
<svg width="7.6174in" height=".59103in" version="1.1" viewBox="0 0 193.48 15.012" xmlns="http://www.w3.org/2000/svg">
 <g transform="translate(-12.168 -65.228)">
  <g transform="matrix(1.1039 0 0 1.1039 -13.121 -70.125)" stroke-width=".90586">
   <path d="m87.992 122.61c-1.641 0-3.0177 0.51832-4.0255 1.5562-1.004 1.034-1.5545 2.4114-1.6524 4.0612-0.03439 0.57953-0.0018 1.1239 0.08917 1.6335l-0.0061-3e-3 0.10946 0.99635-2.2871-8.0927h-4.1895l-0.11471 0.27453-2.8827 6.8866 0.38153-4.6347-0.5487-2.5253v-1e-3h-4.256l-0.32558 3.6384h-0.80923l0.10561-1.1121-0.63508-2.5263-4.73e-4 1e-3 3.5e-4 -1e-3h-4.2564l-0.04163 0.40181-1.0754 10.522 0.71376 2.3672h4.2721l0.37034-3.894h0.84106l-0.13674 1.5268 0.62529 2.3672h7.4744l0.80819-1.9808h2.3004l0.48784 1.9808h4.3756l-0.38853-2.3179c0.1884 0.35474 0.40832 0.68851 0.68859 0.98025 0.95642 0.99559 2.282 1.4929 3.8678 1.4929 1.3213 0 2.4892-0.35826 3.4468-1.0771 0.55489-0.41426 0.97922-0.94534 1.2824-1.5664l-5e-3 0.121h-3.62e-4l0.26159 2.3672h4.0748l0.07857-2.5987 0.64103-0.80155 1.6174 3.4003h4.7127l-0.0318-0.77846c0.0438 0.0305 0.0758 0.073 0.12136 0.10141 0.91194 0.5672 2.0796 0.83233 3.4789 0.83233 1.5329 0 2.8175-0.33025 3.8129-1.0243l4.7e-4 -3.4e-4 3.4e-4 -3.5e-4c0.99161-0.69669 1.5368-1.6863 1.5324-2.8264-1e-3 -0.40297-0.0783-0.784-0.21438-1.139 0.16404-0.39854 0.25106-0.82829 0.24936-1.2828-2e-3 -0.58662-0.15314-1.1309-0.43505-1.6076l0.26124-0.0713 0.0329-2.4826h3.5e-4l-0.21333-0.47702c-0.79253-1.7729-2.4976-2.6854-4.8341-2.6854-1.5322 0-2.7693 0.31888-3.6695 1.0156l-4.9e-4 3.6e-4 -3.5e-4 3.5e-4c-0.16919 0.13183-0.31945 0.27548-0.45916 0.42491l-0.0521-1.2898 3.5e-4 -3.4e-4h-4.1588l-2.1539 2.8001 8e-3 -0.27382-0.19619-2.5232v-3e-3h-4.0609l-0.01567 0.43084-0.11926 3.2138c-0.15638-1.0281-0.5712-1.9147-1.2733-2.5893-0.84969-0.82162-2.0784-1.2065-3.601-1.2065zm64.119 0c-1.6408 7e-5 -2.9701 0.52303-3.8521 1.5814-0.5356 0.64274-0.87643 1.4147-1.033 2.2927l-1e-3 -3e-3 -0.46373 2.1976c-0.14603 0.62984-0.20198 1.3128-0.14373 2.0556 0.12968 1.6545 0.73296 3.0188 1.8105 3.9997 1.0749 0.97856 2.4474 1.4726 4.0332 1.4726 1.3213 0 2.4544-0.35926 3.3289-1.0915 0.78336-0.65181 1.214-1.5858 1.3296-2.6914l0.36544 3.6276h8.6204l0.51198-1.4751c0.0397 0.0368 0.0733 0.0781 0.11436 0.11367v7e-4c1.1702 1.0059 2.613 1.516 4.2528 1.516 1.6321 0 2.9763-0.53341 3.906-1.5968 0.25342-0.28988 0.44723-0.61462 0.61024-0.95681l0.0192-5e-3 0.6127-1.5198 0.0451 0.31928c0.18267 1.29 0.81033 2.3053 1.8384 2.9019v3.6e-4c1.0047 0.57966 2.242 0.85646 3.6874 0.85646 1.3805 0 2.5082-0.28807 3.3408-0.91625v-3.6e-4c0.29192-0.22084 0.4976-0.50849 0.6648-0.82287l0.85538-1.771 0.54976 3.3552h4.8474c1.6647 0 3.0142-0.5159 3.9203-1.5604 0.16391-0.18893 0.28477-0.40081 0.40882-0.61095l0.1336-0.199c0.0104-0.0207 0.022-0.0406 0.0322-0.0615l1.2446-2.3438-3e-3 4.8e-4c0.47261-0.92384 0.59301-2.0237 0.36897-3.2366-0.26015-1.4082-0.99325-2.652-2.1525-3.693-1.1866-1.0656-2.7783-1.5863-4.697-1.5863h-4.7613l-3.6e-4 -3.4e-4 -0.32978 0.75328-0.12134-0.75294h-3.5426l-1.0481 2.526 0.81062 5.2216c-0.19427-0.0393-0.33912-0.10383-0.43677-0.1864-0.1499-0.13111-0.2801-0.36982-0.34204-0.78545l-1.0092-6.7757h-4.3179l-3.7e-4 -3.4e-4 -0.72495 1.9171c-0.19073-0.21539-0.39476-0.42082-0.62107-0.6092-1.1604-0.97016-2.5805-1.4586-4.1917-1.4586-1.7332 0-3.121 0.52463-4.0322 1.6003-0.45589 0.53866-0.76947 1.1596-0.94456 1.8476l-1e-3 -1e-3 -0.73929 2.3025c-0.0198 0.0667-0.0459 0.12988-0.063 0.19792l-0.0126 0.0815c-0.12027 0.51588-0.16528 1.0676-0.13217 1.651h-2.5085l-0.81204-7.5276h-4.2574l-0.49171 1.8318c-0.21685-0.29006-0.46454-0.55649-0.74593-0.79525-0.94091-0.80285-2.2066-1.1876-3.729-1.1876zm-127.81 0.15107-0.06784 0.36616-1.2481 6.7568c-0.16045 0.86851-0.06952 1.6483 0.26928 2.2651l-0.0094-1e-3 1.2072 2.256c0.01739 0.037 0.03864 0.0714 0.05772 0.10731l0.08009 0.14968 0.0047-6e-3c0.16122 0.25798 0.36502 0.48717 0.62389 0.67249l6.64e-4 3.5e-4 6.62e-4 3.5e-4c0.85316 0.60639 2.0164 0.87919 3.4618 0.87919 1.3806 0 2.5824-0.29052 3.5737-0.89072l3.51e-4 -3.6e-4c1.0282-0.62386 1.666-1.6732 1.8885-3.018l0.43678-2.6407 0.53262 4.0273 1.0991 2.3672h3.6447l1.2233-2.9645 0.07867 0.59731 1.011 2.3672h3.5199l2.2102-5.1548-0.3672 2.7876 0.91835 2.3672h5.7507c1.699 0 2.922-0.27364 3.6374-1.0121l3.45e-4 -3.5e-4c0.62821-0.64755 1.0086-1.4141 1.1026-2.2535 0.04616-0.41202 0.0054-0.79907-0.10737-1.1513l0.01712 0.0165-0.52457-1.6636c0.03263-0.0319 0.07717-0.0515 0.10736-0.0857l3.46e-4 -3.5e-4c0.4048-0.45686 0.65487-0.99362 0.72006-1.5723 0.04352-0.38637 0.0043-0.76344-0.11086-1.1184l0.0014-4.7e-4 -0.0033-0.0104-0.72182-2.3648-0.0033 3e-3c-0.11193-0.41477-0.3208-0.80327-0.62564-1.1432-0.59142-0.65952-1.5472-0.93409-2.7697-0.93409h-9.0614l-1.3684 3.3436-0.11506-0.81729-0.97849-2.5263v1e-3l-3.5e-4 -1e-3h-3.3344l-1.217 2.9351-0.04615-0.40882-1.061-2.5263-3.52e-4 1e-3v-1e-3h-7.0922l-1.0593 6.1903c-0.09794 0.57247-0.20238 0.96487-0.25214 1.0782l-4e-3 0.01c-0.02918 0.0707-0.12905 0.1941-0.37034 0.32804-0.01543 8e-3 -0.03357 0.0148-0.04968 0.0228l0.90506-5.102-1.1936-2.5266zm91.205 0-0.0724 2.5263 6e-3 0.44588 0.0311 2.7655h2.25l0.12205 7.5531h4.0906l0.16819-2.3672h3.7e-4l-0.11926-5.1859h1.6562l0.21891 7.5531h4.2686l0.25985-2.3672h3.5e-4l-0.0553-1.5268h1.3356l0.16261 3.894h4.2686l0.34835-2.3672h3.4e-4l-0.53471-10.924h-4.2532l-0.27837 2.5263 0.0465 1.1121h-1.3044l-0.1315-3.6384h-4.2528zm18.971 0-0.34902 2.5263 0.0245 0.46407 0.53612 10.3h9.1831l0.49307-2.3672-0.2322-3.3292h-1.1603l0.14791-0.75539-0.0805-1.1869h0.299l0.48505-2.4802-0.22103-3.1719zm-31.78 3.7517c4e-4 8e-3 4.7e-4 0.0154 1e-3 0.023l-3e-3 3.4e-4 0.11401 2.4711 0.0144-7e-3c0.0154 0.26271 0.0648 0.51753 0.14443 0.76237l-1.0275 0.16786 0.0262 0.0902-0.81203-1.551zm-14.374 1.7143c0.23448 0 0.39802 0.0771 0.56723 0.2427l0.01678 0.42036-0.05808 0.40636c-0.07124 0.49894-0.22036 0.82243-0.39867 1.01-0.17832 0.18756-0.3921 0.28013-0.75083 0.28013-0.2903 0-0.47599-0.0607-0.63019-0.21053 0.06631-0.75541 0.2166-1.3166 0.41581-1.6478 0.22548-0.37498 0.44738-0.50044 0.83792-0.50044zm63.487 0h1e-3c0.26157 1.4e-4 0.47314 0.0856 0.70887 0.31299l2e-3 2e-3c0.19814 0.18781 0.3616 0.54776 0.4165 1.1432l0.0392 0.4207 0.74105-0.036c-0.039 0.10684-0.0834 0.19813-0.13466 0.26123-0.13553 0.16671-0.31131 0.25389-0.67005 0.25389-0.38752 0-0.63859-0.12108-0.88231-0.42454-0.19333-0.24631-0.40528-0.90394-0.50113-1.9028 0.0785-0.0197 0.16676-0.0311 0.27626-0.0311zm18.234 3e-3c0.35735 9e-3 0.59233 0.13158 0.82495 0.45254 0.24181 0.33352 0.44497 0.90735 0.55219 1.7199 0.0104 0.0784 0.0125 0.14109 0.021 0.21613-0.33726-0.0276-0.57697-0.16717-0.81098-0.50254-0.2597-0.37216-0.47421-1.0046-0.58716-1.886zm21.777 0.9659c0.25799 0.36245 0.44006 0.77507 0.54765 1.2485h-0.33399z" color="#000000" fill="#6b61ff" stroke-width=".23618" style="-inkscape-stroke:none"/>
   <g transform="matrix(.47298 0 0 .47298 -8.3595 63.44)" stroke-width="1.9152">
    <path d="m203.71 126.05c-3.2771 0-5.8861 0.99914-7.832 3.003-1.9538 2.012-3.0312 4.6698-3.2279 7.9837-0.19985 3.3674 0.62522 6.0228 2.482 7.9555 1.8639 1.9402 4.4042 2.9132 7.6154 2.9132 2.6684 0 4.9461-0.70858 6.8293-2.1231 1.8894-1.4105 3.039-3.4297 3.4507-6.0505l-6.5657-0.35917c-0.33655 2.3575-1.4596 3.5403-3.3676 3.5403-1.0689 0-1.8811-0.41921-2.4358-1.2563-0.5423-0.83566-0.75268-2.414-0.63244-4.7287 0.2132-4.1046 1.4433-6.1443 3.6915-6.1443 0.80619 0 1.4895 0.31172 2.0512 0.93645 0.57374 0.62551 0.82882 1.6423 0.76462 3.0529l6.6991-0.3246c-0.11718-2.5489-0.97392-4.5848-2.5665-6.1138-1.5764-1.5243-3.8934-2.2846-6.9558-2.2846zm41.761 0c-3.1076 0-5.4995 0.64903-7.1794 1.9492-1.673 1.3036-2.5268 2.9427-2.5587 4.9214-0.0249 1.5433 0.53518 2.8903 1.6828 4.0385 1.1502 1.1509 3.7768 2.0859 7.8826 2.804 1.076 0.19794 1.8202 0.42713 2.2318 0.68779 0.42328 0.25036 0.63415 0.6049 0.63252 1.0646-3e-3 0.8787-0.91291 1.319-2.7288 1.319-2.3331 0-3.7722-0.864-4.3166-2.5871l-6.7078 1.0962c1.273 4.3654 4.7952 6.5618 10.559 6.5618 3.1535 0 5.7016-0.67662 7.6397-2.0279 1.9329-1.3582 2.8932-3.1216 2.885-5.2857-6e-3 -1.3648-0.40425-2.5444-1.1961-3.5399-0.79025-1.0038-1.7727-1.711-2.9475-2.1238-1.1738-0.4124-3.1552-0.88625-5.9428-1.4214-1.0119-0.19537-1.6932-0.40136-2.0442-0.61711-0.35084-0.21566-0.52487-0.51804-0.52136-0.90782 7e-3 -0.87076 0.78975-1.3056 2.3452-1.3056 1.8734 0 3.114 0.70064 3.7236 2.1056l5.9172-1.6144c-1.5276-3.4173-4.644-5.1174-9.3563-5.1174zm93.803 0c-3.2771 0-5.7485 0.99914-7.4183 3.003-1.6767 2.012-2.388 4.6698-2.1282 7.9837 0.26392 3.3674 1.4548 6.0228 3.5778 7.9555 2.1312 1.9402 4.8054 2.9132 8.0167 2.9132 2.6684 0 4.8485-0.70858 6.5369-2.1231 1.6951-1.4105 2.5665-3.4297 2.6173-6.0505l-6.6152-0.35917c-0.0114 2.3575-0.97192 3.5403-2.8799 3.5403-1.069 0-1.9388-0.41921-2.6088-1.2563-0.65741-0.83566-1.0852-2.414-1.2838-4.7287-0.35217-4.1046 0.59693-6.1443 2.8452-6.1443 0.80619 0 1.5325 0.31172 2.1802 0.93645 0.65986 0.62551 1.055 1.6423 1.1852 3.0529l6.6544-0.3246c-0.46828-2.5489-1.6055-4.5848-3.4087-6.1138-1.7864-1.5243-4.2081-2.2846-7.2705-2.2846zm39.05 0c-3.4805 0-6.0795 1.0142-7.803 3.0487-1.7204 2.0327-2.3995 4.6237-2.0288 7.7822 0.39017 3.3246 1.744 5.9951 4.066 8.0008 2.3428 2.0138 5.181 3.0237 8.5078 3.0237 3.3037 0 5.8616-1.0362 7.6679-3.1025 1.799-2.0578 2.459-4.7794 1.9873-8.1546-0.45266-3.2393-1.8342-5.8135-4.1404-7.7329-2.2859-1.912-5.0363-2.8654-8.2569-2.8654zm-308.48 0.31913-2.639 14.285c-0.4715 2.5523 0.08556 4.4015 1.6752 5.5395 1.6049 1.1406 3.8987 1.7113 6.8789 1.7113 2.8301 0 5.2239-0.592 7.1775-1.7748 1.9622-1.1905 3.1644-3.1337 3.6089-5.8205l2.3062-13.941h-5.5786l-2.1047 12.301c-0.21184 1.2382-0.41171 2.0726-0.5997 2.5007-0.17669 0.4284-0.57585 0.81523-1.198 1.1606-0.6093 0.33512-1.351 0.50282-2.2244 0.50282-1.0459 0-1.7687-0.23602-2.1681-0.70715-0.3875-0.47068-0.49047-1.2175-0.30918-2.2395l2.3982-13.519zm20.1 0 2.8038 21.203h6.3566l4.8729-11.808 1.5531 11.808h6.0971l9.0914-21.203h-5.4426l-4.9574 12.114-1.7065-12.114h-5.5952l-5.0225 12.114-1.3701-12.114zm32.104 0-2.7926 21.203h11.259c3.5336 0 5.9091-0.62857 7.125-1.8843 1.2256-1.2631 1.9268-2.6913 2.105-4.2821 0.29655-2.6471-1.0327-4.2969-3.9837-4.9595 1.3388-0.32061 2.3814-0.90438 3.1279-1.7505 0.75777-0.85496 1.195-1.8058 1.3129-2.8524 0.16142-1.433-0.25655-2.7037-1.2519-3.8136-0.9931-1.1075-2.7097-1.6607-5.1514-1.6607zm29.022 0-2.1676 21.203h7.2576l0.79389-8.3554h5.4967l-0.74784 8.3554h7.2576l1.7447-21.203h-7.1046l-0.68854 7.6929h-5.4683l0.73095-7.6929zm27.983 0-8.8742 21.203h5.8894l1.7336-4.2505h6.3128l1.0472 4.2505h7.3958l-5.9926-21.203zm36.163 0-0.78609 21.203h6.8422l0.15056-4.9738 2.5177-3.1478 3.862 8.1216h7.9502l-7.0984-13.556 6.0277-7.6468h-6.3752l-6.6545 8.6515 0.26189-8.6515zm47.629 0 0.0565 4.9975h4.823l0.26216 16.206h6.8769l-0.37298-16.206h4.823l-0.13936-4.9975zm17.42 0 0.61487 21.203h7.2575l-0.3026-8.3554h5.4967l0.34865 8.3554h7.2576l-1.0377-21.203h-7.1046l0.32101 7.6929h-5.4683l-0.27859-7.6929zm22.728 0 1.1043 21.203h17.79l-0.35907-5.146h-10.616l-0.2065-3.4903h8.5516l-0.31863-4.7037h-8.5113l-0.18042-3.0496h10.496l-0.33582-4.8134zm47.833 0 2.1345 21.203h16.576l-0.61945-5.2874h-9.2693l-1.7171-15.916zm40.3 0 2.0229 14.285c0.3614 2.5523 1.5211 4.4015 3.4822 5.5395 1.9771 1.1406 4.4579 1.7113 7.4382 1.7113 2.83 0 5.03-0.592 6.5976-1.7748 1.5737-1.1905 2.1425-3.1337 1.7101-5.8205l-2.2432-13.941h-5.5786l1.9097 12.301c0.19223 1.2382 0.26397 2.0726 0.21562 2.5007-0.0368 0.4284-0.30978 0.81523-0.81928 1.1606-0.49993 0.33512-1.1868 0.50282-2.0603 0.50282-1.0459 0-1.845-0.23602-2.3982-0.70715-0.54108-0.47068-0.88776-1.2175-1.04-2.2395l-2.0135-13.519zm21.88 0 3.4736 21.203h9.5962c3.3834 0 5.9507-1.0093 7.6964-3.0217 1.7483-2.0148 2.3242-4.6156 1.7371-7.7935-0.51109-2.7667-1.9302-5.1903-4.2525-7.2758-2.3126-2.0767-5.4097-3.112-9.2983-3.112zm-34.035 4.4145c2.1687 0 3.4938 1.8236 3.9779 5.4918 0.33662 2.5507 0.29975 4.3164-0.11189 5.2875-0.40229 0.96256-1.2129 1.4446-2.4314 1.4446-2.276 0-3.6634-1.9933-4.1593-5.9556-0.52401-4.1878 0.38557-6.2683 2.7246-6.2683zm-250.94 0.0615h3.185c1.5898 0 2.3151 0.58308 2.1755 1.752-0.0515 0.43135-0.27073 0.83717-0.65793 1.2178-0.38752 0.38093-0.99752 0.57144-1.8294 0.57144h-3.316zm292.89 0.26068h1.8568c1.363 0 2.4997 0.55305 3.4107 1.6609 0.92448 1.1103 1.5238 2.4349 1.7966 3.975 0.31973 1.8045 0.16005 3.2348-0.47971 4.2883-0.62966 1.0557-1.5425 1.5845-2.7375 1.5845h-1.8785zm-239.22 1.4145 1.4726 6.1347h-3.8116zm-54.677 6.3683h3.2622c1.0532 0 1.7496 0.20839 2.0891 0.6246 0.3525 0.40615 0.49957 0.85409 0.44121 1.3444-0.0584 0.49081-0.31748 0.9351-0.77836 1.3326-0.4485 0.38739-1.1094 0.58113-1.9828 0.58113h-3.5169z" fill="#f0eff4" stroke-width="1.1875"/>
   </g>
  </g>
 </g>
</svg>
