<?xml version="1.0" encoding="UTF-8"?>
<svg width="20px" height="30px" viewBox="0 0 20 30" version="1.1" xmlns="http://www.w3.org/2000/svg" xmlns:xlink="http://www.w3.org/1999/xlink">
    <!-- Generator: Sketch 49 (51002) - http://www.bohemiancoding.com/sketch -->
    <title>if_icon-34-award_315784</title>
    <desc>Created with Sketch.</desc>
    <defs></defs>
    <g id="Page-1" stroke="none" stroke-width="1" fill="none" fill-rule="evenodd">
        <g id="Desktop" transform="translate(-678.000000, -541.000000)" fill="#FFFFFF" fill-rule="nonzero">
            <g id="if_icon-34-award_315784" transform="translate(678.000000, 541.000000)">
                <path d="M10.0072233,17.9999807 L5.6014826,29.4773277 L3.87584513,25.6014826 L0,27.32712 L4.3529754,15.9872315 C2.32301176,14.3370448 1.02605283,11.8199829 1.02605283,9 C1.02605283,4.02943725 5.0554901,0 10.0260528,0 C14.9966156,0 19.0260528,4.02943725 19.0260528,9 C19.0260528,11.8199829 17.7290939,14.3370448 15.6991303,15.9872315 L20.0521057,27.32712 L16.1762605,25.6014826 L14.4506231,29.4773277 L10.0448824,17.9999807 C10.0386073,17.9999936 10.0323308,18 10.0260528,18 C10.0197748,18 10.0134983,17.9999936 10.0072233,17.9999807 Z M8.9600512,17.937529 L5.527983,26.8783724 L4.3775581,24.2944757 L1.79366132,25.4449006 L5.1916968,16.5927156 C6.3050465,17.3030744 7.5850946,17.7752756 8.9600512,17.937529 Z M14.8604089,16.5927156 L18.2584443,25.4449006 L15.6745476,24.2944757 L14.5241226,26.8783724 L11.0920544,17.937529 C12.467011,17.7752756 13.7470592,17.3030744 14.8604089,16.5927156 Z M10.0260528,17 C14.4443308,17 18.0260528,13.418278 18.0260528,9 C18.0260528,4.581722 14.4443308,1 10.0260528,1 C5.6077748,1 2.02605283,4.581722 2.02605283,9 C2.02605283,13.418278 5.6077748,17 10.0260528,17 Z M10.0260528,11.6923077 L6.5260528,14 L8.0260528,10 L5.0260528,8 L8.5260528,8 L10.0260528,4 L11.5260528,8 L15.0260528,8 L12.0260528,10 L13.5260528,14 L10.0260528,11.6923077 Z" id="award"></path>
            </g>
        </g>
    </g>
</svg>